<mxfile host="app.diagrams.net" modified="2023-12-04T17:00:29.896Z" agent="Mozilla/5.0 (Windows NT 10.0; Win64; x64) AppleWebKit/537.36 (KHTML, like Gecko) Chrome/119.0.0.0 Safari/537.36 Edg/119.0.0.0" etag="6zPBbjpKhkg1xKGh7iC3" version="22.1.5" type="device">
  <diagram name="Page-1" id="QfCz42e7ZqGckEBI0JQ8">
    <mxGraphModel dx="2026" dy="1145" grid="1" gridSize="10" guides="1" tooltips="1" connect="1" arrows="1" fold="1" page="1" pageScale="1" pageWidth="850" pageHeight="1100" math="0" shadow="0">
      <root>
        <mxCell id="0" />
        <mxCell id="1" parent="0" />
        <mxCell id="8lAd3E4kcnfDw9PuuLJz-1" value="&lt;font style=&quot;font-size: 18px;&quot;&gt;Design&lt;/font&gt;" style="shape=step;perimeter=stepPerimeter;whiteSpace=wrap;html=1;fixedSize=1;fillColor=#76608a;fontColor=#ffffff;strokeColor=#432D57;" vertex="1" parent="1">
          <mxGeometry x="40" y="410" width="180" height="80" as="geometry" />
        </mxCell>
        <mxCell id="8lAd3E4kcnfDw9PuuLJz-3" value="&lt;font style=&quot;font-size: 18px;&quot;&gt;Develop&lt;/font&gt;" style="shape=step;perimeter=stepPerimeter;whiteSpace=wrap;html=1;fixedSize=1;fillColor=#647687;fontColor=#ffffff;strokeColor=#314354;" vertex="1" parent="1">
          <mxGeometry x="80" y="500" width="180" height="80" as="geometry" />
        </mxCell>
        <mxCell id="8lAd3E4kcnfDw9PuuLJz-4" value="&lt;font style=&quot;font-size: 18px;&quot;&gt;Make&lt;/font&gt;" style="shape=step;perimeter=stepPerimeter;whiteSpace=wrap;html=1;fixedSize=1;fillColor=#6d8764;fontColor=#ffffff;strokeColor=#3A5431;" vertex="1" parent="1">
          <mxGeometry x="120" y="590" width="180" height="80" as="geometry" />
        </mxCell>
        <mxCell id="8lAd3E4kcnfDw9PuuLJz-5" style="edgeStyle=orthogonalEdgeStyle;rounded=0;orthogonalLoop=1;jettySize=auto;html=1;exitX=0.5;exitY=1;exitDx=0;exitDy=0;" edge="1" parent="1" source="8lAd3E4kcnfDw9PuuLJz-4" target="8lAd3E4kcnfDw9PuuLJz-4">
          <mxGeometry relative="1" as="geometry" />
        </mxCell>
        <mxCell id="8lAd3E4kcnfDw9PuuLJz-11" style="edgeStyle=orthogonalEdgeStyle;rounded=0;orthogonalLoop=1;jettySize=auto;html=1;exitX=1;exitY=0.5;exitDx=0;exitDy=0;entryX=0.5;entryY=0;entryDx=0;entryDy=0;curved=1;strokeWidth=2;fillColor=#fad7ac;strokeColor=#b46504;" edge="1" parent="1" source="8lAd3E4kcnfDw9PuuLJz-6" target="8lAd3E4kcnfDw9PuuLJz-7">
          <mxGeometry relative="1" as="geometry" />
        </mxCell>
        <mxCell id="8lAd3E4kcnfDw9PuuLJz-6" value="&lt;font style=&quot;font-size: 18px;&quot;&gt;Listen&lt;/font&gt;" style="rounded=1;whiteSpace=wrap;html=1;fillColor=#fad7ac;strokeColor=#b46504;" vertex="1" parent="1">
          <mxGeometry x="365" y="80" width="145" height="80" as="geometry" />
        </mxCell>
        <mxCell id="8lAd3E4kcnfDw9PuuLJz-13" style="edgeStyle=orthogonalEdgeStyle;rounded=0;orthogonalLoop=1;jettySize=auto;html=1;exitX=0;exitY=1;exitDx=0;exitDy=0;entryX=1;entryY=1;entryDx=0;entryDy=0;curved=1;strokeWidth=2;fillColor=#fad7ac;strokeColor=#b46504;" edge="1" parent="1" source="8lAd3E4kcnfDw9PuuLJz-7" target="8lAd3E4kcnfDw9PuuLJz-8">
          <mxGeometry relative="1" as="geometry" />
        </mxCell>
        <mxCell id="8lAd3E4kcnfDw9PuuLJz-7" value="&lt;font style=&quot;font-size: 18px;&quot;&gt;Analyse&lt;/font&gt;" style="rounded=1;whiteSpace=wrap;html=1;fillColor=#fad7ac;strokeColor=#b46504;" vertex="1" parent="1">
          <mxGeometry x="520" y="240" width="145" height="80" as="geometry" />
        </mxCell>
        <mxCell id="8lAd3E4kcnfDw9PuuLJz-10" style="edgeStyle=orthogonalEdgeStyle;rounded=0;orthogonalLoop=1;jettySize=auto;html=1;exitX=0.5;exitY=0;exitDx=0;exitDy=0;entryX=0;entryY=0.5;entryDx=0;entryDy=0;curved=1;strokeWidth=2;fillColor=#fad7ac;strokeColor=#b46504;" edge="1" parent="1" source="8lAd3E4kcnfDw9PuuLJz-8" target="8lAd3E4kcnfDw9PuuLJz-6">
          <mxGeometry relative="1" as="geometry" />
        </mxCell>
        <mxCell id="8lAd3E4kcnfDw9PuuLJz-8" value="&lt;font style=&quot;font-size: 18px;&quot;&gt;Implement&lt;/font&gt;" style="rounded=1;whiteSpace=wrap;html=1;fillColor=#fad7ac;strokeColor=#b46504;" vertex="1" parent="1">
          <mxGeometry x="220" y="240" width="145" height="80" as="geometry" />
        </mxCell>
        <mxCell id="8lAd3E4kcnfDw9PuuLJz-19" style="rounded=0;orthogonalLoop=1;jettySize=auto;html=1;exitX=1;exitY=1;exitDx=0;exitDy=0;entryX=0.5;entryY=0;entryDx=0;entryDy=0;strokeWidth=2;startArrow=classic;startFill=1;" edge="1" parent="1" source="8lAd3E4kcnfDw9PuuLJz-15" target="8lAd3E4kcnfDw9PuuLJz-17">
          <mxGeometry relative="1" as="geometry" />
        </mxCell>
        <mxCell id="8lAd3E4kcnfDw9PuuLJz-20" style="rounded=0;orthogonalLoop=1;jettySize=auto;html=1;exitX=0;exitY=1;exitDx=0;exitDy=0;entryX=0.5;entryY=0;entryDx=0;entryDy=0;strokeWidth=2;startArrow=classic;startFill=1;" edge="1" parent="1" source="8lAd3E4kcnfDw9PuuLJz-15" target="8lAd3E4kcnfDw9PuuLJz-16">
          <mxGeometry relative="1" as="geometry" />
        </mxCell>
        <mxCell id="8lAd3E4kcnfDw9PuuLJz-15" value="&lt;font style=&quot;font-size: 18px;&quot;&gt;Powertrain&lt;/font&gt;" style="rounded=1;whiteSpace=wrap;html=1;fillColor=#b1ddf0;strokeColor=#10739e;" vertex="1" parent="1">
          <mxGeometry x="705" y="410" width="145" height="80" as="geometry" />
        </mxCell>
        <mxCell id="8lAd3E4kcnfDw9PuuLJz-16" value="&lt;font style=&quot;font-size: 18px;&quot;&gt;Electronics&lt;/font&gt;" style="rounded=1;whiteSpace=wrap;html=1;fillColor=#d0cee2;strokeColor=#56517e;" vertex="1" parent="1">
          <mxGeometry x="580" y="560" width="145" height="80" as="geometry" />
        </mxCell>
        <mxCell id="8lAd3E4kcnfDw9PuuLJz-18" style="edgeStyle=orthogonalEdgeStyle;rounded=0;orthogonalLoop=1;jettySize=auto;html=1;exitX=0;exitY=0.5;exitDx=0;exitDy=0;entryX=1;entryY=0.5;entryDx=0;entryDy=0;startArrow=classic;startFill=1;strokeWidth=2;" edge="1" parent="1" source="8lAd3E4kcnfDw9PuuLJz-17" target="8lAd3E4kcnfDw9PuuLJz-16">
          <mxGeometry relative="1" as="geometry" />
        </mxCell>
        <mxCell id="8lAd3E4kcnfDw9PuuLJz-17" value="&lt;font style=&quot;font-size: 18px;&quot;&gt;Chassis&lt;/font&gt;" style="rounded=1;whiteSpace=wrap;html=1;fillColor=#bac8d3;strokeColor=#23445d;" vertex="1" parent="1">
          <mxGeometry x="830" y="560" width="145" height="80" as="geometry" />
        </mxCell>
      </root>
    </mxGraphModel>
  </diagram>
</mxfile>
